# xmcd CD database file
#
# Track frame offsets:
#	182
#	17897
#	36657
#	51640
#	67905
#	84557
#	97115
#	114445
#	134207
#	152232
#	169677
#	183647
#	197810
#	210092
#
# Disc length: 2964 seconds
#
# Revision: 2
# Processed by: cddbd v1.4b42PL1 Copyright (c) Steve Scherf et al.
# Submitted via: CDex 1.40Beta7
#
DISCID=d00b920e
DTITLE=Grupo Raça - Dengo
DYEAR=1900
DGENRE=Samba
TTITLE0=Dengo
TTITLE1=Eu E Ela
TTITLE2=Volta De Vez Pra Mim
TTITLE3=Retrato De Criança
TTITLE4=Roda Baiana
TTITLE5=Quiprocó
TTITLE6=Olha Aqu  Pra Você
TTITLE7=Cabelo Molhado
TTITLE8=Bonita E Faceira
TTITLE9=Luz Divina
TTITLE10=Coisa Louca
TTITLE11=Boi Deitado
TTITLE12=Forró Na Roça
TTITLE13=Na Madrugada
EXTD=ID3G: 114
EXTT0=
EXTT1=
EXTT2=
EXTT3=
EXTT4=
EXTT5=
EXTT6=
EXTT7=
EXTT8=
EXTT9=
EXTT10=
EXTT11=
EXTT12=
EXTT13=
PLAYORDER=
